#N canvas 779 179 498 337 10;
#X obj 87 77 netreceive 5000;
#X obj 98 125 route 0 1;
#X obj 100 168 \$1;
#X obj 140 168 \$1;
#X obj 192 126 print;
#X msg 117 196 \; pd-\$1.pd menuclose;
#X msg 56 233 \; pd open \$1.pd /home/pi/Download/Git/rpieffect;
#X connect 0 0 1 0;
#X connect 0 0 4 0;
#X connect 1 0 2 0;
#X connect 1 1 3 0;
#X connect 2 0 6 0;
#X connect 3 0 5 0;
